<svg version="1.1" id="Laag_1" xmlns="http://www.w3.org/2000/svg" xmlns:xlink="http://www.w3.org/1999/xlink" x="0px" y="0px" viewBox="0 0 497.09 351.14" style="enable-background:new 0 0 497.09 351.14;" xml:space="preserve"><style type="text/css"> .st0{fill:#9F2E1D;} .st1{fill:#9F2E1D;stroke:#9F2E1D;stroke-miterlimit:10;} </style><g><path class="st0" d="M200.84,77.63h52.25l16.46,89.61l77.52-83.1C336.47,36.03,293.65,0,242.35,0 c-59.26,0-107.29,48.04-107.29,107.29c0,53.65,39.420,97.97,90.85,105.9L200.84,77.63z"/><path class="st0" d="M287.84,204.36c25.33-11.89,45.2-33.35,55.01-59.77L287.84,204.36z"/></g><g><polygon class="st0" points="497.09,244.61 476.09,244.61 451.68,261.46 439.11,244.61 418.96,244.61 435.2,270.98 405.41,293.93 400.16,298.08 405.41,298.08 420.3,298.08 444.72,281.23 457.29,298.08 478.29,298.08 461.45,270.98 "/><polygon class="st0" points="410.78,244.61 405.41,244.61 394.3,244.61 380.75,283.06 375.5,298.08 380.75,298.08 391.98,298.08 405.41,259.62 "/><polygon class="st0" points="386.12,244.61 380.75,244.61 363.91,244.61 333.39,277.45 322.77,244.61 303.97,244.61 290.41,283.06 285.17,298.08 290.41,298.08 299.45,298.08 309.58,269.27 318,298.08 334.36,298.08 361.95,270.12 352.07,298.08 367.32,298.08 380.75,259.62 "/><polygon class="st0" points="295.67,244.61 290.42,244.61 273.45,244.61 243.05,277.45 232.43,244.61 213.51,244.61 200.08,283.06 194.83,298.08 200.08,298.08 209.11,298.08 219.25,269.27 227.55,298.08 244.03,298.08 271.5,270.12 261.73,298.08 276.86,298.08 290.42,259.62 "/><polygon class="st0" points="78.49,244.61 73,244.61 58.72,244.61 26.49,279.16 20.14,244.61 0,244.61 9.89,298.08 29.3,298.08 73,250.59 "/><polygon class="st0" points="104.74,244.61 86.31,244.61 73,282.45 67.51,298.08 73,298.08 120.85,298.08 125.98,283.67 91.07,283.67 "/><polygon class="st0" points="193.25,279.16 198.13,265.12 157.48,265.12 159.8,258.65 200.08,258.65 200.45,258.65 205.33,244.61 200.08,244.61 147.83,244.61 129.03,298.08 186.65,298.08 191.29,284.89 150.15,284.89 152.23,279.16 "/></g><g><path class="st1" d="M131.17,350.21v-31.55h-12.33v-3.79h28.66v3.79h-12.33v31.55H131.17z"/><path class="st1" d="M153.11,350.21v-35.34h16.92c3.63,0,6.52,1,8.67,2.99c2.15,1.990,3.23,4.68,3.23,8.06 c0,2.28-0.44,4.09-1.31,5.45c-0.87,1.35-1.97,2.37-3.28,3.07c-1.32,0.7-2.64,1.2-3.95,1.52l9.29,14.25h-4.75l-8.54-13.56h-12.28 v13.56H153.11z M157.12,332.86h12.22c1.28,0,2.58-0.2,3.9-0.59c1.31-0.39,2.43-1.1,3.34-2.11s1.36-2.43,1.36-4.24 c0-2.24-0.76-4.01-2.3-5.31c-1.53-1.3-3.56-1.95-6.08-1.95h-12.44V332.86z"/><path class="st1" d="M185.19,350.21l15-35.34h5.02l15,35.34h-4.43l-4.32-10.25h-17.51l-4.32,10.25H185.19z M195.5,336.28h14.41 l-7.21-17.24L195.5,336.28z"/><path class="st1" d="M225.23,350.21v-35.34h4.01v35.34H225.23z"/><path class="st1" d="M238.42,350.21v-35.34h4v31.5h19.27v3.84H238.42z"/><path class="st1" d="M267.41,350.21v-35.34h26v3.84h-22v11.85h19.65v3.9h-19.65v11.9h22v3.84H267.41z"/><path class="st1" d="M300.4,350.21v-35.34h16.92c3.63,0,6.52,1,8.68,2.99c2.15,1.99,3.23,4.68,3.23,8.06 c0,2.28-0.43,4.09-1.31,5.45c-0.87,1.35-1.97,2.37-3.28,3.07c-1.32,0.7-2.63,1.2-3.95,1.52l9.29,14.25h-4.75l-8.54-13.56H304.4 v13.56H300.4z M304.4,332.86h12.22c1.28,0,2.58-0.2,3.9-0.59c1.32-0.39,2.43-1.1,3.34-2.11s1.36-2.43,1.36-4.24 c0-2.24-0.77-4.01-2.3-5.31c-1.53-1.3-3.56-1.95-6.09-1.95H304.4V332.86z"/><path class="st1" d="M349.3,350.64c-3.49,0-6.32-0.47-8.49-1.42c-2.17-0.94-3.8-2.25-4.89-3.920c-1.09-1.67-1.72-3.56-1.9-5.66h4.16 c0.11,1.71,0.68,3.09,1.71,4.14c1.03,1.05,2.39,1.82,4.08,2.32c1.69,0.5,3.55,0.75,5.58,0.75c2.990,0,5.36-0.53,7.1-1.58 c1.74-1.05,2.61-2.61,2.61-4.67c0-1.24-0.43-2.25-1.31-3.02c-0.87-0.77-2.03-1.4-3.47-1.9c-1.44-0.5-3.02-0.95-4.72-1.36 c-1.71-0.41-3.43-0.85-5.15-1.31c-1.73-0.46-3.31-1.05-4.75-1.76s-2.6-1.63-3.47-2.75c-0.87-1.12-1.31-2.55-1.31-4.3 c0-2.88,1.11-5.23,3.34-7.05c2.22-1.82,5.54-2.72,9.96-2.72c3.13,0,5.71,0.47,7.74,1.41c2.03,0.94,3.55,2.18,4.56,3.71 c1.01,1.53,1.57,3.19,1.68,4.96h-4.11c-0.21-1.78-1.1-3.28-2.67-4.51c-1.57-1.23-3.97-1.84-7.21-1.84c-1.99,0-3.61,0.2-4.86,0.59 c-1.25,0.39-2.2,0.9-2.86,1.52c-0.66,0.62-1.1,1.27-1.34,1.95c-0.23,0.68-0.35,1.32-0.35,1.92c0,1.17,0.43,2.13,1.31,2.86 c0.87,0.73,2.03,1.33,3.47,1.82c1.44,0.48,3.04,0.92,4.78,1.31c1.75,0.39,3.48,0.83,5.21,1.31c1.72,0.48,3.31,1.09,4.75,1.82 c1.44,0.73,2.6,1.66,3.47,2.8c0.87,1.14,1.31,2.6,1.31,4.38c0,3.28-1.25,5.79-3.74,7.55C357.06,349.76,353.64,350.64,349.3,350.64z "/></g></svg>
